<?xml version="1.0" encoding="utf-8"?>
<!-- Generator: Adobe Illustrator 18.1.1, SVG Export Plug-In . SVG Version: 6.00 Build 0)  -->
<!DOCTYPE svg PUBLIC "-//W3C//DTD SVG 1.1//EN" "http://www.w3.org/Graphics/SVG/1.1/DTD/svg11.dtd">
<svg version="1.1" id="Layer_1" xmlns="http://www.w3.org/2000/svg" xmlns:xlink="http://www.w3.org/1999/xlink" x="0px" y="0px"
	 width="120px" height="120px" viewBox="0 0 120 120" enable-background="new 0 0 120 120" xml:space="preserve">
<g>
	<polygon fill="#005A79" points="46.707,97.752 46.707,71.133 24.471,48.896 24.471,98.653 24.471,119.995 	"/>
	<polygon fill="#005A79" points="120,0 97.763,22.237 97.763,97.752 120,119.995 	"/>
	<polygon fill="#005A79" points="24.411,21.344 61.541,58.474 71.118,68.051 71.118,46.707 58.466,34.055 24.411,0 	"/>
	<polygon fill="#003E4F" points="61.541,34.055 73.293,45.807 73.293,73.3 73.293,97.758 95.589,120 95.589,98.652 95.589,21.336 
		95.589,0.007 	"/>
	<polygon fill="#003E4F" points="0,120 22.297,97.758 22.297,43.647 47.795,69.145 58.466,58.474 22.237,22.244 0,0.007 	"/>
</g>
</svg>
